<svg xmlns="http://www.w3.org/2000/svg" viewBox="0 0 900 520">
  <defs>
    <linearGradient id="bgGrad" x1="0%" y1="0%" x2="100%" y2="100%">
      <stop offset="0%" style="stop-color:#0f172a"/>
      <stop offset="100%" style="stop-color:#1e293b"/>
    </linearGradient>
    <linearGradient id="cardGrad" x1="0%" y1="0%" x2="0%" y2="100%">
      <stop offset="0%" style="stop-color:#334155"/>
      <stop offset="100%" style="stop-color:#1e293b"/>
    </linearGradient>
    <linearGradient id="accentGrad" x1="0%" y1="0%" x2="100%" y2="0%">
      <stop offset="0%" style="stop-color:#3b82f6"/>
      <stop offset="100%" style="stop-color:#8b5cf6"/>
    </linearGradient>
    <filter id="cardShadow" x="-10%" y="-10%" width="120%" height="130%">
      <feDropShadow dx="0" dy="4" stdDeviation="8" flood-color="#000" flood-opacity="0.25"/>
    </filter>
    <filter id="glowBlue">
      <feGaussianBlur stdDeviation="2" result="blur"/>
      <feFlood flood-color="#3b82f6" flood-opacity="0.5"/>
      <feComposite in2="blur" operator="in"/>
      <feMerge>
        <feMergeNode/>
        <feMergeNode in="SourceGraphic"/>
      </feMerge>
    </filter>
  </defs>
  
  <!-- Background -->
  <rect width="900" height="520" fill="url(#bgGrad)"/>
  
  <!-- Subtle dot pattern -->
  <pattern id="dots" x="0" y="0" width="40" height="40" patternUnits="userSpaceOnUse">
    <circle cx="20" cy="20" r="1" fill="rgba(255,255,255,0.03)"/>
  </pattern>
  <rect width="900" height="520" fill="url(#dots)"/>
  
  <!-- Header -->
  <text x="450" y="48" font-family="system-ui, -apple-system, BlinkMacSystemFont, 'Segoe UI', sans-serif" font-size="24" font-weight="600" fill="#f8fafc" text-anchor="middle" letter-spacing="0.5">Implementation Playbook</text>
  <rect x="350" y="60" width="200" height="3" rx="1.5" fill="url(#accentGrad)"/>
  
  <!-- Row 1: Steps 1-3 -->
  <!-- Step 1 -->
  <g transform="translate(60, 95)" filter="url(#cardShadow)">
    <rect width="240" height="145" rx="12" fill="url(#cardGrad)" stroke="#475569" stroke-width="1"/>
    <rect width="240" height="4" rx="2" fill="#ef4444"/>
    <g transform="translate(20, 30)">
      <circle cx="18" cy="0" r="16" fill="#ef4444" opacity="0.15"/>
      <text x="18" y="6" font-family="system-ui, sans-serif" font-size="14" font-weight="700" fill="#ef4444" text-anchor="middle">01</text>
      <text x="50" y="5" font-family="system-ui, sans-serif" font-size="13" font-weight="600" fill="#f1f5f9">Identify Commodities</text>
    </g>
    <line x1="20" y1="55" x2="220" y2="55" stroke="#475569" stroke-width="1"/>
    <text x="20" y="78" font-family="system-ui, sans-serif" font-size="12" fill="#94a3b8">Auth, billing, observability,</text>
    <text x="20" y="96" font-family="system-ui, sans-serif" font-size="12" fill="#94a3b8">LLM routing are table stakes</text>
    <text x="20" y="125" font-family="system-ui, sans-serif" font-size="11" fill="#64748b" font-style="italic">→ Not differentiators</text>
  </g>
  
  <!-- Arrow 1-2 -->
  <path d="M 310 167 L 330 167" stroke="#475569" stroke-width="2" fill="none" marker-end="url(#arrow)"/>
  <polygon points="328,163 336,167 328,171" fill="#475569"/>
  
  <!-- Step 2 -->
  <g transform="translate(330, 95)" filter="url(#cardShadow)">
    <rect width="240" height="145" rx="12" fill="url(#cardGrad)" stroke="#475569" stroke-width="1"/>
    <rect width="240" height="4" rx="2" fill="#f59e0b"/>
    <g transform="translate(20, 30)">
      <circle cx="18" cy="0" r="16" fill="#f59e0b" opacity="0.15"/>
      <text x="18" y="6" font-family="system-ui, sans-serif" font-size="14" font-weight="700" fill="#f59e0b" text-anchor="middle">02</text>
      <text x="50" y="5" font-family="system-ui, sans-serif" font-size="13" font-weight="600" fill="#f1f5f9">Build Modular Core</text>
    </g>
    <line x1="20" y1="55" x2="220" y2="55" stroke="#475569" stroke-width="1"/>
    <text x="20" y="78" font-family="system-ui, sans-serif" font-size="12" fill="#94a3b8">Invest upfront in reusable</text>
    <text x="20" y="96" font-family="system-ui, sans-serif" font-size="12" fill="#94a3b8">infrastructure components</text>
    <text x="20" y="125" font-family="system-ui, sans-serif" font-size="11" fill="#64748b" font-style="italic">→ Future products are forks</text>
  </g>
  
  <!-- Arrow 2-3 -->
  <path d="M 580 167 L 600 167" stroke="#475569" stroke-width="2" fill="none"/>
  <polygon points="598,163 606,167 598,171" fill="#475569"/>
  
  <!-- Step 3 -->
  <g transform="translate(600, 95)" filter="url(#cardShadow)">
    <rect width="240" height="145" rx="12" fill="url(#cardGrad)" stroke="#475569" stroke-width="1"/>
    <rect width="240" height="4" rx="2" fill="#10b981"/>
    <g transform="translate(20, 30)">
      <circle cx="18" cy="0" r="16" fill="#10b981" opacity="0.15"/>
      <text x="18" y="6" font-family="system-ui, sans-serif" font-size="14" font-weight="700" fill="#10b981" text-anchor="middle">03</text>
      <text x="50" y="5" font-family="system-ui, sans-serif" font-size="13" font-weight="600" fill="#f1f5f9">Vibe Code Branding</text>
    </g>
    <line x1="20" y1="55" x2="220" y2="55" stroke="#475569" stroke-width="1"/>
    <text x="20" y="78" font-family="system-ui, sans-serif" font-size="12" fill="#94a3b8">Fork repos, search-replace</text>
    <text x="20" y="96" font-family="system-ui, sans-serif" font-size="12" fill="#94a3b8">strings, customize in source</text>
    <text x="20" y="125" font-family="system-ui, sans-serif" font-size="11" fill="#64748b" font-style="italic">→ Skip config abstraction</text>
  </g>
  
  <!-- Vertical connector -->
  <path d="M 720 245 L 720 265" stroke="#475569" stroke-width="2" stroke-dasharray="4,4"/>
  
  <!-- Row 2: Steps 4-6 -->
  <!-- Step 4 -->
  <g transform="translate(60, 270)" filter="url(#cardShadow)">
    <rect width="240" height="145" rx="12" fill="url(#cardGrad)" stroke="#475569" stroke-width="1"/>
    <rect width="240" height="4" rx="2" fill="#3b82f6"/>
    <g transform="translate(20, 30)">
      <circle cx="18" cy="0" r="16" fill="#3b82f6" opacity="0.15"/>
      <text x="18" y="6" font-family="system-ui, sans-serif" font-size="14" font-weight="700" fill="#3b82f6" text-anchor="middle">04</text>
      <text x="50" y="5" font-family="system-ui, sans-serif" font-size="13" font-weight="600" fill="#f1f5f9">Encapsulate AI Logic</text>
    </g>
    <line x1="20" y1="55" x2="220" y2="55" stroke="#475569" stroke-width="1"/>
    <text x="20" y="78" font-family="system-ui, sans-serif" font-size="12" fill="#94a3b8">Keep workflows separate</text>
    <text x="20" y="96" font-family="system-ui, sans-serif" font-size="12" fill="#94a3b8">from infrastructure code</text>
    <text x="20" y="125" font-family="system-ui, sans-serif" font-size="11" fill="#64748b" font-style="italic">→ Enables clean reuse</text>
  </g>
  
  <!-- Arrow 4-5 -->
  <path d="M 310 342 L 330 342" stroke="#475569" stroke-width="2" fill="none"/>
  <polygon points="328,338 336,342 328,346" fill="#475569"/>
  
  <!-- Step 5 -->
  <g transform="translate(330, 270)" filter="url(#cardShadow)">
    <rect width="240" height="145" rx="12" fill="url(#cardGrad)" stroke="#475569" stroke-width="1"/>
    <rect width="240" height="4" rx="2" fill="#8b5cf6"/>
    <g transform="translate(20, 30)">
      <circle cx="18" cy="0" r="16" fill="#8b5cf6" opacity="0.15"/>
      <text x="18" y="6" font-family="system-ui, sans-serif" font-size="14" font-weight="700" fill="#8b5cf6" text-anchor="middle">05</text>
      <text x="50" y="5" font-family="system-ui, sans-serif" font-size="13" font-weight="600" fill="#f1f5f9">Infrastructure-ize Billing</text>
    </g>
    <line x1="20" y1="55" x2="220" y2="55" stroke="#475569" stroke-width="1"/>
    <text x="20" y="78" font-family="system-ui, sans-serif" font-size="12" fill="#94a3b8">Wire Stripe from day one</text>
    <text x="20" y="96" font-family="system-ui, sans-serif" font-size="12" fill="#94a3b8">for turnkey monetization</text>
    <text x="20" y="125" font-family="system-ui, sans-serif" font-size="11" fill="#64748b" font-style="italic">→ Revenue-ready products</text>
  </g>
  
  <!-- Arrow 5-6 -->
  <path d="M 580 342 L 600 342" stroke="#475569" stroke-width="2" fill="none"/>
  <polygon points="598,338 606,342 598,346" fill="#475569"/>
  
  <!-- Step 6 -->
  <g transform="translate(600, 270)" filter="url(#cardShadow)">
    <rect width="240" height="145" rx="12" fill="url(#cardGrad)" stroke="#475569" stroke-width="1"/>
    <rect width="240" height="4" rx="2" fill="#ec4899"/>
    <g transform="translate(20, 30)">
      <circle cx="18" cy="0" r="16" fill="#ec4899" opacity="0.15"/>
      <text x="18" y="6" font-family="system-ui, sans-serif" font-size="14" font-weight="700" fill="#ec4899" text-anchor="middle">06</text>
      <text x="50" y="5" font-family="system-ui, sans-serif" font-size="13" font-weight="600" fill="#f1f5f9">Open Plumbing, Close AI</text>
    </g>
    <line x1="20" y1="55" x2="220" y2="55" stroke="#475569" stroke-width="1"/>
    <text x="20" y="78" font-family="system-ui, sans-serif" font-size="12" fill="#94a3b8">Share infrastructure openly,</text>
    <text x="20" y="96" font-family="system-ui, sans-serif" font-size="12" fill="#94a3b8">protect unique AI workflows</text>
    <text x="20" y="125" font-family="system-ui, sans-serif" font-size="11" fill="#64748b" font-style="italic">→ Best of both worlds</text>
  </g>
  
  <!-- Result Banner -->
  <g transform="translate(60, 440)">
    <rect width="780" height="55" rx="10" fill="#1e293b" stroke="url(#accentGrad)" stroke-width="2"/>
    <text x="100" y="33" font-family="system-ui, sans-serif" font-size="13" font-weight="600" fill="#94a3b8">RESULT</text>
    <line x1="160" y1="15" x2="160" y2="40" stroke="#475569" stroke-width="1"/>
    <text x="200" y="28" font-family="system-ui, sans-serif" font-size="14" fill="#f8fafc">3 months</text>
    <text x="290" y="28" font-family="system-ui, sans-serif" font-size="14" fill="#64748b">→</text>
    <text x="320" y="28" font-family="system-ui, sans-serif" font-size="14" font-weight="600" fill="#10b981">3 weeks</text>
    <line x1="400" y1="15" x2="400" y2="40" stroke="#475569" stroke-width="1"/>
    <text x="440" y="28" font-family="system-ui, sans-serif" font-size="14" fill="#f8fafc">90%+ code reuse</text>
    <line x1="580" y1="15" x2="580" y2="40" stroke="#475569" stroke-width="1"/>
    <text x="620" y="28" font-family="system-ui, sans-serif" font-size="14" fill="#f8fafc">Velocity wins in AI</text>
  </g>
</svg>
