<svg xmlns="http://www.w3.org/2000/svg" viewBox="0 0 800 600">
  <defs>
    <linearGradient id="aiConsultingGradient" x1="0%" y1="0%" x2="100%" y2="100%">
      <stop offset="0%" style="stop-color:#1e3a8a;stop-opacity:1" />
      <stop offset="100%" style="stop-color:#3b82f6;stop-opacity:1" />
    </linearGradient>
    <linearGradient id="brainGradient" x1="0%" y1="0%" x2="100%" y2="100%">
      <stop offset="0%" style="stop-color:#ffffff;stop-opacity:0.9" />
      <stop offset="100%" style="stop-color:#dbeafe;stop-opacity:0.7" />
    </linearGradient>
  </defs>

  <!-- Background -->
  <rect width="800" height="600" fill="url(#aiConsultingGradient)"/>

  <!-- Central AI Consulting Illustration -->
  <g transform="translate(400, 200)">
    <!-- Brain outline -->
    <path d="M-80,-40 Q-40,-80 0,-60 Q40,-80 80,-40 Q100,0 80,40 Q40,80 0,60 Q-40,80 -80,40 Q-100,0 -80,-40 Z"
          fill="url(#brainGradient)" stroke="#ffffff" stroke-width="3" opacity="0.95"/>

    <!-- Neural network connections -->
    <circle cx="-50" cy="-20" r="4" fill="#60a5fa"/>
    <circle cx="-20" cy="-40" r="4" fill="#60a5fa"/>
    <circle cx="20" cy="-40" r="4" fill="#60a5fa"/>
    <circle cx="50" cy="-20" r="4" fill="#60a5fa"/>
    <circle cx="-30" cy="10" r="4" fill="#60a5fa"/>
    <circle cx="0" cy="20" r="4" fill="#60a5fa"/>
    <circle cx="30" cy="10" r="4" fill="#60a5fa"/>
    <circle cx="0" cy="-10" r="4" fill="#60a5fa"/>

    <!-- Connection lines -->
    <line x1="-50" y1="-20" x2="-20" y2="-40" stroke="#93c5fd" stroke-width="2"/>
    <line x1="-20" y1="-40" x2="20" y2="-40" stroke="#93c5fd" stroke-width="2"/>
    <line x1="20" y1="-40" x2="50" y2="-20" stroke="#93c5fd" stroke-width="2"/>
    <line x1="-50" y1="-20" x2="-30" y2="10" stroke="#93c5fd" stroke-width="2"/>
    <line x1="50" y1="-20" x2="30" y2="10" stroke="#93c5fd" stroke-width="2"/>
    <line x1="-30" y1="10" x2="0" y2="20" stroke="#93c5fd" stroke-width="2"/>
    <line x1="30" y1="10" x2="0" y2="20" stroke="#93c5fd" stroke-width="2"/>
    <line x1="0" y1="-10" x2="0" y2="20" stroke="#93c5fd" stroke-width="2"/>

    <!-- Consulting briefcase -->
    <rect x="-15" y="35" width="30" height="20" rx="3" fill="#1e40af" stroke="#ffffff" stroke-width="2"/>
    <rect x="-10" y="30" width="20" height="5" rx="2" fill="#1e40af" stroke="#ffffff" stroke-width="2"/>
    <circle cx="0" cy="42" r="2" fill="#fbbf24"/>
  </g>

  <!-- Title -->
  <text x="400" y="360" font-family="Arial, sans-serif" font-size="42" font-weight="bold"
        fill="white" text-anchor="middle">PE Partnerships in</text>

  <!-- Subtitle -->
  <text x="400" y="400" font-family="Arial, sans-serif" font-size="22"
        fill="rgba(255,255,255,0.9)" text-anchor="middle">AI Consulting Firms</text>
</svg>